<?xml version="1.0" encoding="UTF-8"?><svg xmlns="http://www.w3.org/2000/svg" viewBox="0 0 69.24 60.63"><g id="a"/><g id="b"><g id="c"><g><path d="M19.11,25.82c-.57-1.28-1.33-2.36-2.36-3.25-.24-.21-.44-.54-.5-.85-.09-.44,.16-.8,.56-1.02,.44-.23,.85-.15,1.23,.16,1.25,.99,2.2,2.21,2.91,3.62,1.21,2.39,1.74,4.94,1.76,7.6,.03,4.04,0,8.07,0,12.11,0,.19,0,.39-.06,.57-.15,.46-.58,.74-1.05,.72-.47-.02-.88-.34-.99-.8-.05-.19-.06-.38-.06-.57,0-3.83,0-7.66,0-11.49,0-1.53-.26-3.02-.64-4.5-.02-.07-.05-.13-.05-.12-1.06,.33-2.08,.76-3.14,.95-5.04,.9-9.54-.31-13.39-3.72-1.27-1.13-2.32-2.45-3.1-3.96-.13-.26-.21-.58-.21-.87C0,16.18,.01,11.96,0,7.74c0-.47,.21-.82,.48-1.16,1.67-2.12,3.72-3.77,6.16-4.92C10,.09,13.52-.38,17.16,.33c3.88,.76,6.72,3.01,8.75,6.36,1.55,2.56,2.46,5.36,3.09,8.27,.73,3.37,1.1,6.79,1.17,10.24,.09,4.82,.12,9.65,.14,14.47,.02,5.85,0,11.7,0,17.55,0,1.72-1.1,3.06-2.73,3.36-.18,.03-.36,.04-.54,.04-1.06,0-2.13,0-3.19,0-1.75,0-3.17-1.35-3.29-3.1-.04-.65,.37-1.18,.96-1.23,.66-.06,1.13,.35,1.2,1.03,.08,.78,.47,1.13,1.25,1.13,.98,0,1.96,0,2.95,0,.8,0,1.22-.42,1.22-1.23,0-4.84,0-9.68,0-14.52,0-3.87,.01-7.74,0-11.61-.01-3.58-.09-7.16-.48-10.72-.37-3.35-.96-6.64-2.22-9.79-.71-1.77-1.62-3.42-2.91-4.84-2.1-2.32-4.75-3.44-7.86-3.53-3.93-.12-7.45,.94-10.47,3.52-.09,.08-.19,.17-.28,.25q-1.73,1.61-1.74,3.95c0,3.32,0,6.64,.01,9.95,0,.31,.09,.66,.24,.93,1.8,3.14,4.52,5.05,8.02,5.86,2.57,.59,5.13,.62,7.62-.38,.34-.14,.68-.3,1.04-.47Z"/><path d="M49.37,27.9c-.14,.62-.32,1.22-.39,1.82-.14,1.15-.28,2.31-.3,3.46-.04,3.69-.01,7.38-.01,11.08,0,.66-.31,1.09-.86,1.19-.73,.13-1.3-.37-1.3-1.18-.01-1.45,0-2.9,0-4.36,0-2.61-.03-5.23,.01-7.84,.04-2.87,.63-5.62,2.07-8.15,.67-1.18,1.52-2.21,2.59-3.05,.56-.44,1.21-.39,1.62,.11,.38,.48,.28,1.13-.26,1.57-1.07,.86-1.8,1.97-2.42,3.28,.63,.25,1.23,.53,1.85,.72,4.4,1.37,10.98,.07,14.29-4.84,.23-.34,.46-.7,.64-1.07,.11-.21,.17-.47,.17-.71,.01-3.87,.01-7.74,0-11.61,0-.24-.1-.52-.24-.71-2.2-2.84-5.12-4.5-8.61-5.16-2.1-.4-4.21-.42-6.29,.11-3.01,.76-5.17,2.65-6.74,5.26-1.48,2.46-2.31,5.16-2.88,7.95-.58,2.84-.94,5.71-1,8.6-.11,6.12-.15,12.25-.18,18.37-.03,4.78,0,9.57,0,14.35,0,.98,.37,1.34,1.36,1.34,.94,0,1.88,0,2.82,0,.77,0,1.14-.34,1.22-1.1,.07-.67,.52-1.09,1.14-1.07,.61,.02,1.03,.5,1.02,1.17,0,1.65-1.42,3.11-3.08,3.15-1.17,.03-2.35,.03-3.53,0-1.71-.04-3.11-1.49-3.12-3.25,0-5.41,0-10.81,0-16.22,0-4.22-.02-8.43,.02-12.65,.04-4.01,.26-8.01,.97-11.97,.62-3.42,1.53-6.74,3.34-9.74,1.82-3.03,4.32-5.23,7.78-6.2,2.85-.8,5.72-.74,8.56,0,3.72,.97,6.76,3.01,9.15,6.02,.32,.41,.48,.84,.48,1.37-.02,4.15,0,8.3-.02,12.44,0,.35-.13,.74-.31,1.05-2.58,4.37-6.39,6.92-11.43,7.62-2.74,.38-5.37,.07-7.89-1.12-.05-.02-.1-.03-.22-.07Z"/><path d="M51.92,5.28c0,.57-.18,.88-.53,1.08-1.21,.7-2.2,1.6-2.86,2.85-.28,.53-.93,.7-1.43,.43-.51-.27-.74-.88-.48-1.41,.83-1.69,2.14-2.93,3.8-3.78,.71-.36,1.5,.2,1.5,.84Z"/><path d="M18.5,4.36c.08,.03,.28,.06,.46,.16,1.53,.84,2.74,2,3.57,3.54,.34,.63,.2,1.24-.34,1.55-.57,.32-1.19,.14-1.54-.49-.65-1.19-1.61-2.06-2.77-2.73-.47-.27-.67-.75-.55-1.23,.13-.48,.53-.79,1.16-.8Z"/><path d="M62.18,16.25c-.91,0-1.61-.73-1.6-1.66,0-.88,.75-1.6,1.63-1.59,.88,.01,1.62,.76,1.61,1.62,0,.91-.74,1.63-1.64,1.62Z"/><path d="M5.42,14.62c.02-.91,.76-1.64,1.65-1.62,.89,.02,1.61,.79,1.59,1.68-.02,.88-.77,1.58-1.66,1.56-.89-.01-1.6-.74-1.59-1.63Z"/><path d="M48.67,48.72c0,.59-.49,1.09-1.08,1.09-.58,0-1.09-.51-1.08-1.09,0-.58,.51-1.09,1.09-1.08,.6,0,1.07,.49,1.07,1.09Z"/><path d="M25.96,22.75c-.59,0-1.08-.49-1.08-1.09,0-.58,.5-1.08,1.09-1.08,.59,0,1.08,.49,1.08,1.08,0,.58-.5,1.09-1.09,1.09Z"/><path d="M44.35,21.69c-.01,.59-.51,1.07-1.11,1.05-.6-.02-1.07-.52-1.05-1.11,.02-.58,.54-1.07,1.12-1.06,.6,.02,1.06,.51,1.05,1.11Z"/><path d="M22.71,53.06c0,.59-.51,1.08-1.09,1.07-.59-.01-1.08-.52-1.07-1.1,.01-.59,.52-1.07,1.11-1.06,.6,0,1.06,.48,1.06,1.09Z"/><path d="M47.62,51.97c.61,0,1.06,.48,1.05,1.09,0,.59-.51,1.09-1.09,1.07-.58-.02-1.08-.53-1.07-1.11,.01-.59,.51-1.07,1.11-1.06Z"/><path d="M22.72,48.7c0,.59-.47,1.09-1.06,1.1-.59,.01-1.09-.47-1.1-1.06-.01-.58,.48-1.09,1.07-1.1,.6,0,1.09,.46,1.1,1.06Z"/></g></g></g></svg>