<?xml version="1.0" encoding="UTF-8"?><svg xmlns="http://www.w3.org/2000/svg" viewBox="0 0 239.7 87.74"><defs><style>.d{fill:#008769;}.e{fill:#00896b;}</style></defs><g id="a"/><g id="b"><g id="c"><g><g><path class="e" d="M9.41,23.22s1.54-5.04-.34-8.65c-1.88-3.61-5.19-2.97-5.19-2.97,0,0-4.84,1.14-3.71,6.42,1.13,5.28,2.84,8.44,2.84,8.44l2.84,12.18s.48,2.24,1.45,2.62c.97,.38,2.23-1.73,2.23-1.73,0,0,1.62-2.99,.87-5.5-.74-2.51-1-10.81-1-10.81Z"/><path class="e" d="M16.3,29.44s1.21-6.21,4.16-6.59c2.95-.38,2.5-4.22,2.5-4.22,0,0-2.46-5.58-1.77-8.06,.68-2.48-1.48-9.12-1.48-9.12,0,0-3.9-1.07-6.32,3.6l.09,15.51s-.06,6.41,.38,6.78,.32,1.79,2.45,2.11Z"/></g><g><path class="d" d="M29.63,48.2s-9.81-1.17-12.54-2.02c0,0-2.98-.23-2.05,3.65,.93,3.88,1.86,4.45,1.86,4.45,0,0,2.02,1.23,3.06,3.85,1.04,2.62,20.15-.79,20.15-.79,0,0,10.17-1.18,14.6-9.1,0,0,.58-1.33-2.8-1.25,0,0-16.14,4.03-22.29,1.22Z"/><path class="d" d="M17.28,84.95s9.69-22.07,10.68-29.45c.99-7.38,3.95-19.5,3.95-19.5,0,0,1.45-11.22,1.87-11.28,0,0,.28-2.58,1.63-2.2,1.35,.38,4.96-1.56,4.96-1.56l1.92-1.56s1.56-1.15,2,1.23c.43,2.39,5.15,19.07,5.15,19.07,0,0,8.71,28.45,9.75,29.1,0,0,1.25,3.38,1.88,3.4,0,0,.86,2.19-2.58,2.6,0,0-4.4-.31-6.06-1.12,0,0-4.13,.32-4.87-1.09,0,0-4.73-13.63-7.3-38.82,0,0-2.78,17.47-3.65,28.46,0,0-.65,7.9-1.29,8.66-.64,.76-.11,4.96-.11,4.96,0,0,.88,2.19-3.37,4.89-4.25,2.69-5.02,2.21-5.97,3.28s-4.11,3.32-5.67,3.59c-1.56,.27-4.27,.52-2.91-2.64Z"/></g><path class="e" d="M70.99,19.75s1.8,2.06,2.41,2.25,1.49,.3,1.91,.92,1.84,.04,1.84,.04c0,0,2.47-.47,3.06,4.29,0,0,2.65,14.83-.03,24.17,0,0-4.43,20.64-6.07,22.97,0,0,10.19-3.72,15.69-2.19,5.5,1.53,9.78,2.6,12.01,4.93,2.23,2.34-2.22,4.96-2.22,4.96,0,0-12.05-5.38-13.56-3.65,0,0-8.24-.01-18.49,2.47-10.25,2.49,.08-3.43,.08-3.43,0,0,7.02-29.81,1.95-42.84-5.06-13.04,1.4-14.91,1.4-14.91Z"/><g><path class="e" d="M106.9,40.18s2.85-4.43,8.87-4.22c0,0,2.06-.1,1.21,3.61,0,0-.09,36.98-2.85,40.8,0,0-.22,3.5-3.14,4.27,0,0-2.25,1.24-2.45-3.33-.2-4.58,1-23.46-.15-26.38l-.35-7.86s-2.09-1.73-1.14-6.89Z"/><path class="e" d="M115.96,28.81s-3.8,3.97-8.3,5.61c0,0-1.68,.14-2.11-1.32-.43-1.46,.72-13.44,.72-13.44,0,0,1.85,.1,2.29-1.05,0,0,.75,.31,.97,.83,.22,.53,.9-1.14,.9-1.14,0,0,3.2-3,4.68,3.3,1.48,6.3,.88,7.21,.88,7.21Z"/></g><path class="e" d="M167.45,25.25s-15.17,4.42-30.87-1.05c0,0-2.42-.47-2.63,1.53,0,0-1.95,.99-2.7,.71-.75-.28-.77,.8-.77,.8,0,0,2,4.06,6.59,4.84,0,0,2.12,13.36,1.65,15.44,0,0-.61,1.16-3.53,.5,0,0-.83,3.25,3.26,3.93,0,0-.6,18.91-2.52,22.04-1.91,3.14,2.91,4.42,2.91,4.42,0,0,1.09-.06,1.73,1.04,.64,1.1,2.74,.98,2.74,.98,0,0,.92,.1,2.32-2.46,0,0,12.47-10.85,23.57-13.02,0,0,1.48-2.64,1.26-3.91s-1.36-2.79-3.71-2.51c0,0-2.35,.2-3.14-2,0,0-.14-1.09-1.31-1.37,0,0-.9-1.03-3.31,1.77l-12.54,10.26,.51-14.74s13.03,1.32,16.36-4.97c0,0,.21-2,.56-2.58,.35-.58,.28-1.25-.87-2.03-1.15-.78-1.39-1.54-1.39-1.54,0,0-12.54,6.66-15.04,5.76,0,0,.25-10.71-.47-12.23,0,0,13.77,2.08,15.63,1.11,0,0,2.85-.19,3.62-4.6,0,0,2.81-1.86,3.25-3.11,0,0,.93-3.55-1.19-3.04Z"/><path class="e" d="M176.14,24.9s5.28,34.63-3.72,52.86c0,0-2.57,5.82,4.78,3.49,0,0,3.26-.94,4.37-2.06,0,0,4.68-.97,5.37-4.47,.69-3.5-1.05-24.81-1.05-24.81,0,0,8.78,29.17,14.42,30.52,5.64,1.35,9.64-5.25,9.64-5.25,0,0-4.85-35.63,.35-50.37,0,0,.41-2.07-2.35-2.13,0,0-3.74,2.29-4.56,3.45,0,0-5.54,.14-5.21,3.04,0,0-.53,28.59,2.33,36.17,0,0-3.14-1-10.21-26.21,0,0-2.71-8.37-3.86-15.51,0,0-1.38-3.2-4.58-1.56,0,0-7.42,1.52-5.73,2.82Z"/><g><path class="e" d="M229.98,22.29s-1.31-5.11,.73-8.63c2.04-3.52,5.32-2.73,5.32-2.73,0,0,4.78,1.36,3.41,6.58-1.37,5.23-3.22,8.3-3.22,8.3l-3.4,12.04s-.59,2.21-1.57,2.55c-.99,.33-2.15-1.83-2.15-1.83,0,0-1.48-3.06-.62-5.54,.86-2.48,1.5-10.75,1.5-10.75Z"/><path class="e" d="M222.81,28.18s-.92-6.26-3.85-6.77c-2.93-.51-2.31-4.33-2.31-4.33,0,0,2.71-5.46,2.14-7.97-.57-2.51,1.9-9.05,1.9-9.05,0,0,3.94-.89,6.15,3.88l-.8,15.49s-.24,6.41-.69,6.76-.4,1.77-2.54,1.99Z"/></g></g></g></g></svg>