<?xml version="1.0" encoding="UTF-8"?><svg xmlns="http://www.w3.org/2000/svg" viewBox="0 0 105.01 45.94"><defs><style>.d{fill:#010300;}.e{fill:#241f1e;}</style></defs><g id="a"/><g id="b"><g id="c"><g><g><path class="e" d="M16.17,10.11h1.97l8.77,19.68h-2.87l-2.61-5.8H13.09l-2.45,5.8h-2.88L16.17,10.11Zm4.12,11.39l-3.16-7.09-2.93,7.09h6.09Z"/><path class="e" d="M44.19,10.22h2.62V29.79h-2.82V14.56l-6.02,7.56h-.52l-6.09-7.56v15.23h-2.8V10.22h2.65l6.5,8.04,6.46-8.04Z"/><path class="e" d="M56.79,29.79h-6.63V10.22h5.13c1.62,0,2.88,.22,3.78,.65,.91,.43,1.6,1.03,2.07,1.79,.48,.76,.71,1.64,.71,2.64,0,1.92-.99,3.3-2.98,4.13,1.43,.27,2.57,.86,3.41,1.77,.85,.91,1.27,1.99,1.27,3.25,0,1-.26,1.89-.77,2.68s-1.27,1.42-2.26,1.92-2.24,.74-3.73,.74Zm-1.41-17.08h-2.41v5.88h1.86c1.49,0,2.56-.28,3.19-.85,.63-.57,.95-1.31,.95-2.21,0-1.88-1.2-2.82-3.59-2.82Zm.21,8.38h-2.62v6.21h2.76c1.53,0,2.57-.12,3.12-.36s.99-.61,1.32-1.11,.5-1.05,.5-1.62-.18-1.14-.53-1.64c-.35-.49-.85-.86-1.49-1.11-.64-.24-1.66-.36-3.05-.36Z"/><path class="e" d="M66.18,10.22h11.09v2.49h-8.29v5.97h8.01v2.51h-8.01v6.08h8.56v2.49h-11.36V10.22Z"/><path class="e" d="M81.18,29.79V10.22h4.9c1.98,0,3.55,.49,4.71,1.47,1.16,.98,1.74,2.31,1.74,3.98,0,1.14-.28,2.12-.85,2.96-.57,.83-1.23,1.45-2.29,2.03l4.96,9.13h-3.33l-4.35-8.52s-1.04,0-1.96,0h-.73v8.52h-2.8Zm3.64-17.19h-.84v6.18h1.06c1.42,0,2.39-.12,2.92-.36,.53-.24,.94-.61,1.23-1.1s.44-1.05,.44-1.67-.16-1.17-.49-1.67c-.33-.5-.79-.85-1.38-1.06-.59-.21-1.58-.31-2.95-.31Z"/></g><g><path class="e" d="M47.42,33.69v2.96h-.81v-2.27c0-.45-.06-.77-.18-.95-.12-.18-.33-.27-.63-.27-.17,0-.32,.04-.46,.12-.14,.08-.3,.21-.48,.41v2.96h-.81v-4.08h.81v.54c.41-.41,.81-.62,1.21-.62,.52,0,.92,.25,1.2,.74,.43-.5,.88-.75,1.35-.75,.4,0,.72,.14,.98,.43,.26,.29,.38,.73,.38,1.33v2.41h-.81v-2.42c0-.34-.07-.6-.21-.78-.14-.18-.34-.27-.6-.27-.33,0-.65,.17-.94,.51Z"/><path class="e" d="M53.15,32.56c.62,0,1.14,.2,1.55,.6,.41,.4,.62,.9,.62,1.51s-.21,1.08-.63,1.47-.94,.58-1.57,.58-1.12-.2-1.53-.59c-.41-.4-.62-.89-.62-1.48s.21-1.1,.62-1.49c.42-.4,.94-.6,1.56-.6Zm-.04,.73c-.39,0-.71,.13-.95,.38s-.37,.58-.37,.97,.13,.71,.38,.96c.25,.25,.58,.37,.98,.37s.72-.12,.97-.37c.25-.25,.38-.57,.38-.96s-.13-.71-.39-.96c-.26-.25-.59-.38-.99-.38Z"/><path class="e" d="M58.83,32.57h.88l-1.8,4.15h-.27l-1.85-4.15h.88l1.1,2.51,1.06-2.51Z"/><path class="e" d="M60.84,30.85c.13,0,.25,.05,.34,.14s.14,.2,.14,.34-.05,.24-.14,.34-.21,.14-.34,.14c-.12,0-.23-.05-.33-.14-.09-.1-.14-.21-.14-.33s.05-.23,.14-.33c.09-.1,.2-.14,.33-.14Zm-.4,1.72h.81v4.08h-.81v-4.08Z"/><path class="e" d="M63.34,32.57v.52c.36-.4,.77-.6,1.23-.6,.25,0,.49,.07,.71,.2s.39,.31,.5,.54,.17,.59,.17,1.09v2.33h-.81v-2.32c0-.42-.06-.71-.19-.89s-.34-.27-.64-.27c-.38,0-.71,.19-.97,.57v2.91h-.83v-4.08h.83Z"/><path class="e" d="M66.99,33.98c0-.43,.16-.78,.48-1.03,.32-.25,.75-.38,1.3-.38h1.68v.63h-.83c.16,.16,.27,.31,.33,.44s.09,.29,.09,.46c0,.21-.06,.42-.18,.63-.12,.21-.28,.36-.47,.47-.19,.11-.5,.2-.94,.26-.3,.04-.46,.15-.46,.31,0,.09,.06,.17,.17,.23,.11,.06,.32,.12,.62,.19,.5,.11,.82,.2,.96,.26s.27,.15,.39,.27c.2,.2,.29,.44,.29,.74,0,.39-.17,.7-.52,.93-.34,.23-.81,.35-1.38,.35s-1.05-.12-1.4-.35c-.35-.23-.52-.54-.52-.93,0-.55,.34-.91,1.02-1.07-.27-.17-.41-.35-.41-.52,0-.13,.06-.25,.18-.35s.27-.18,.47-.23c-.6-.27-.9-.7-.9-1.29Zm1.33,2.86c-.27,0-.49,.06-.67,.17-.17,.12-.26,.26-.26,.44,0,.42,.38,.63,1.14,.63,.36,0,.64-.05,.83-.16,.2-.11,.3-.25,.3-.45s-.12-.34-.37-.46c-.25-.12-.57-.18-.96-.18Zm.19-3.57c-.22,0-.41,.07-.56,.22s-.23,.33-.23,.53c0,.21,.08,.38,.23,.52,.15,.14,.34,.21,.57,.21s.42-.07,.57-.21,.23-.32,.23-.53-.08-.39-.23-.53-.35-.21-.58-.21Z"/><path class="e" d="M77.18,33.69v2.96h-.81v-2.27c0-.45-.06-.77-.18-.95s-.33-.27-.63-.27c-.17,0-.32,.04-.46,.12s-.3,.21-.48,.41v2.96h-.81v-4.08h.81v.54c.41-.41,.81-.62,1.21-.62,.52,0,.92,.25,1.2,.74,.43-.5,.88-.75,1.35-.75,.4,0,.72,.14,.98,.43s.38,.73,.38,1.33v2.41h-.81v-2.42c0-.34-.07-.6-.21-.78-.14-.18-.34-.27-.6-.27-.33,0-.65,.17-.94,.51Z"/><path class="e" d="M83.56,36.65v-.52c-.17,.19-.37,.33-.59,.44s-.44,.16-.66,.16c-.26,0-.49-.06-.71-.19-.22-.13-.38-.3-.49-.52-.11-.22-.17-.59-.17-1.1v-2.34h.81v2.33c0,.43,.06,.73,.18,.9,.12,.17,.34,.25,.65,.25,.38,0,.71-.19,.98-.56v-2.91h.81v4.08h-.81Z"/><path class="e" d="M85.42,36.36v-.87c.23,.16,.46,.29,.7,.39,.24,.1,.44,.15,.6,.15s.31-.04,.43-.12c.12-.08,.18-.18,.18-.3s-.04-.22-.12-.3-.25-.19-.51-.34c-.52-.29-.86-.54-1.02-.74-.16-.21-.24-.43-.24-.67,0-.31,.12-.57,.37-.77,.24-.2,.56-.3,.94-.3s.81,.11,1.23,.34v.8c-.48-.29-.87-.43-1.18-.43-.16,0-.28,.03-.38,.1-.1,.07-.14,.15-.14,.26,0,.09,.04,.18,.13,.27,.09,.09,.24,.19,.46,.31l.29,.16c.68,.38,1.02,.81,1.02,1.28,0,.33-.13,.61-.39,.82-.26,.21-.6,.32-1.01,.32-.24,0-.46-.03-.65-.08-.19-.05-.43-.15-.71-.29Z"/><path class="e" d="M89.65,30.85c.13,0,.25,.05,.34,.14,.09,.09,.14,.2,.14,.34s-.05,.24-.14,.34c-.09,.09-.21,.14-.34,.14-.12,0-.23-.05-.33-.14-.09-.1-.14-.21-.14-.33s.05-.23,.14-.33c.09-.1,.2-.14,.33-.14Zm-.4,1.72h.81v4.08h-.81v-4.08Z"/><path class="e" d="M94.4,35.7v.8c-.4,.15-.8,.23-1.19,.23-.64,0-1.15-.19-1.53-.57-.38-.38-.57-.89-.57-1.52s.18-1.16,.55-1.55c.37-.39,.86-.59,1.46-.59,.21,0,.4,.02,.57,.06,.17,.04,.37,.11,.62,.22v.86c-.41-.26-.79-.39-1.14-.39s-.66,.13-.9,.38c-.23,.26-.35,.58-.35,.98s.13,.75,.38,.99c.25,.25,.59,.37,1.02,.37,.31,0,.67-.09,1.07-.27Z"/></g><path class="d" d="M104.32,.69V45.25H.69V.69H104.32m.69-.69H0V45.94H105.01V0h0Z"/></g></g></g></svg>