<?xml version="1.0" encoding="UTF-8"?><svg xmlns="http://www.w3.org/2000/svg" viewBox="0 0 59.84 59.49"><defs><style>.d{fill:#fff;}</style></defs><g id="a"/><g id="b"><g id="c"><g><path d="M4.66,18.62c0,9.22-.32,18.12,.11,26.99,.28,5.81,5.97,9.74,12.25,9.42,5.82-.3,10.48-4.89,10.58-10.82,.15-9.05-.02-18.1,.08-27.15,.1-8.25,4.71-14.6,11.66-16.37,10.38-2.65,19.81,4.09,20.23,15.08,.42,11.26,.29,22.55,.04,33.82-.14,6.41-4.14,10.38-8.98,9.83-5.84-.67-9.81-5.46-8.96-10.91,.57-3.67,2.79-6.03,6.31-6.95,2.13-.55,4.38-.65,6.84-.99,.12-.82,.38-1.74,.38-2.66,.03-7.66,.15-15.32-.05-22.97-.16-6.13-5.36-10.63-11.7-10.55-6.09,.07-11.13,4.6-11.25,10.58-.19,9.18,.02,18.38-.1,27.56-.11,7.77-4.56,14.1-11.03,16.08-6.73,2.06-14.01-.02-17.67-5.9-1.82-2.92-3.04-6.68-3.16-10.11C-.15,31.64,.04,20.63,.11,9.64,.15,4.14,4.37-.05,9.54,0c4.06,.04,8.46,4.44,8.71,8.71,.31,5.23-3.12,8.9-8.86,9.48-1.49,.15-2.99,.27-4.73,.43Zm.14-4.75c3.44,.27,6.88,1.02,8.61-2.5,.66-1.35,.35-4.01-.62-5.1-1-1.13-3.62-1.89-5.02-1.39-4.04,1.45-3.29,5.14-2.97,8.99Zm50.15,31.74c-3.45-.32-6.92-1.16-8.57,2.48-.63,1.39-.3,4.03,.68,5.13,.99,1.12,3.65,1.86,5.01,1.33,3.92-1.53,3.27-5.17,2.88-8.94Z"/><path class="d" d="M4.8,13.87c-.32-3.86-1.07-7.55,2.97-8.99,1.4-.5,4.02,.26,5.02,1.39,.97,1.09,1.28,3.75,.62,5.1-1.73,3.52-5.17,2.77-8.61,2.5Z"/><path class="d" d="M54.95,45.62c.39,3.77,1.04,7.41-2.88,8.94-1.37,.53-4.02-.21-5.01-1.33-.98-1.1-1.31-3.73-.68-5.13,1.66-3.64,5.12-2.81,8.57-2.48Z"/></g></g></g></svg>