<?xml version="1.0" encoding="UTF-8"?><svg xmlns="http://www.w3.org/2000/svg" viewBox="0 0 28.29 28.59"><g id="a"/><g id="b"><g id="c"><path d="M28.29,27.03l-1.34,1.56c-3.22-3.25-6.2-6.2-9.11-9.23-.95-.99-1.63-1.31-3.01-.5-4.42,2.58-9.89,1.24-12.97-2.94C-.96,12.08-.53,6.54,2.86,3.07,6.33-.49,11.91-1.02,15.83,1.83c4.22,3.08,5.56,8.48,2.99,12.96-.83,1.44-.56,2.16,.51,3.19,2.97,2.88,5.82,5.86,8.97,9.05ZM10.12,2.11c-4.54-.02-8.03,3.4-8.05,7.88-.02,4.53,3.4,8.02,7.9,8.04,4.57,.02,8-3.34,8.02-7.88,.03-4.57-3.35-8.02-7.87-8.04Z"/></g></g></svg>