<?xml version="1.0" encoding="UTF-8"?><svg xmlns="http://www.w3.org/2000/svg" viewBox="0 0 277.09 229.35"><defs><style>.d{fill:#00886b;}.e{fill:#00886c;}.f{fill:#fff;}</style></defs><g id="a"/><g id="b"><g id="c"><g><g><path class="f" d="M1.07,17.54C1.07,6.54,7.66,0,16.12,0c4.51,0,7.6,2.1,9.61,4.26l-3.01,3.84c-1.59-1.64-3.46-2.92-6.42-2.92-5.64,0-9.43,4.63-9.43,12.17s3.36,12.32,9.74,12.32c1.77,0,3.52-.53,4.53-1.48v-7.26h-5.99v-4.89h11.04v14.83c-2.12,2.26-5.79,3.99-10.15,3.99-8.58,0-14.97-6.19-14.97-17.31Z"/><path class="f" d="M31.2,21.64c0-8.21,5.39-13.27,11.01-13.27,6.45,0,9.86,4.94,9.86,11.99,0,1.13-.12,2.26-.24,2.88h-15.16c.47,4.48,3.19,7.03,7.04,7.03,2.04,0,3.79-.68,5.54-1.83l1.91,3.68c-2.28,1.62-5.15,2.74-8.19,2.74-6.59,0-11.76-4.9-11.76-13.22Zm16.02-2.43c0-3.89-1.63-6.25-4.9-6.25-2.78,0-5.23,2.2-5.72,6.25h10.62Z"/><path class="f" d="M57.77,25.73V13.7h-3.4v-4.44l3.69-.27,.66-6.89h4.65v6.89h6.09v4.71h-6.09v12.02c0,2.97,1.09,4.43,3.38,4.43,.82,0,1.79-.29,2.49-.58l.95,4.36c-1.3,.45-2.97,.93-4.88,.93-5.5,0-7.54-3.68-7.54-9.13Z"/><path class="f" d="M82.91,27.45c0-5.41,4.24-8.23,14.04-9.34-.08-2.71-1.11-4.98-4.34-4.98-2.37,0-4.61,1.13-6.71,2.49l-2.06-3.95c2.62-1.75,6.01-3.31,9.8-3.31,5.97,0,8.91,3.89,8.91,10.92v14.95h-4.59l-.43-2.8h-.16c-2.14,1.93-4.59,3.41-7.41,3.41-4.18,0-7.06-3-7.06-7.4Zm14.04,.02v-5.67c-6.47,.86-8.63,2.65-8.63,5.2,0,2.23,1.44,3.21,3.44,3.21s3.42-1.01,5.19-2.74Z"/><path class="f" d="M119,8.99h4.59l.43,3.41h.16c2.14-2.2,4.57-4.03,7.84-4.03,5.11,0,7.35,3.66,7.35,10.04v15.83h-5.6v-15.07c0-4.15-1.13-5.72-3.71-5.72-2.1,0-3.48,1.09-5.44,3.15v17.64h-5.6V8.99Z"/><path class="f" d="M144.64,21.64c0-8.21,5.39-13.27,11.01-13.27,6.46,0,9.86,4.94,9.86,11.99,0,1.13-.12,2.26-.24,2.88h-15.16c.47,4.48,3.19,7.03,7.04,7.03,2.04,0,3.79-.68,5.54-1.83l1.91,3.68c-2.28,1.62-5.15,2.74-8.19,2.74-6.59,0-11.76-4.9-11.76-13.22Zm16.02-2.43c0-3.89-1.63-6.25-4.9-6.25-2.78,0-5.23,2.2-5.72,6.25h10.62Z"/><path class="f" d="M168.46,8.99h5.62l2.9,13.1c.47,2.45,.82,4.81,1.24,7.28h.2c.47-2.47,.93-4.9,1.52-7.28l3.13-13.1h5.08l3.19,13.1c.58,2.45,1.05,4.81,1.57,7.28h.19c.47-2.47,.82-4.83,1.28-7.28l2.86-13.1h5.23l-6.05,25.25h-6.65l-2.8-11.78c-.51-2.36-.93-4.69-1.44-7.33h-.2c-.47,2.64-.87,5.01-1.42,7.37l-2.7,11.74h-6.46l-6.3-25.25Z"/><path class="f" d="M0,70.96l3.5-.27H13.48v4.71H0v-4.44Zm3.21-2.88c0-5.23,2.28-9.07,7.91-9.07,1.73,0,3.31,.43,4.37,.88l-1.07,4.42c-.86-.39-1.77-.59-2.59-.59-1.98,0-3.03,1.33-3.03,4.26v27.97H3.21v-27.86Z"/><path class="f" d="M15.6,83.34c0-8.21,5.39-13.27,11.01-13.27,6.46,0,9.86,4.94,9.86,11.99,0,1.13-.12,2.26-.24,2.88h-15.16c.47,4.48,3.19,7.03,7.04,7.03,2.04,0,3.79-.68,5.54-1.83l1.91,3.68c-2.28,1.62-5.15,2.74-8.19,2.74-6.59,0-11.76-4.9-11.76-13.22Zm16.02-2.43c0-3.89-1.63-6.25-4.9-6.25-2.78,0-5.23,2.2-5.72,6.25h10.62Z"/><path class="f" d="M40.24,83.34c0-8.21,5.39-13.27,11.01-13.27,6.45,0,9.86,4.94,9.86,11.99,0,1.13-.12,2.26-.24,2.88h-15.16c.47,4.48,3.19,7.03,7.04,7.03,2.04,0,3.79-.68,5.54-1.83l1.91,3.68c-2.28,1.62-5.15,2.74-8.19,2.74-6.59,0-11.76-4.9-11.76-13.22Zm16.02-2.43c0-3.89-1.63-6.25-4.9-6.25-2.78,0-5.23,2.2-5.72,6.25h10.62Z"/><path class="f" d="M66.46,89.45v-29.82h5.6v30.13c0,1.46,.62,1.97,1.21,1.97,.25,0,.45,0,.87-.1l.7,4.42c-.68,.29-1.61,.52-2.96,.52-3.97,0-5.43-2.71-5.43-7.12Z"/><path class="f" d="M78.99,62.92c0-1.99,1.48-3.35,3.46-3.35s3.46,1.36,3.46,3.35-1.48,3.35-3.46,3.35-3.46-1.4-3.46-3.35Zm.64,7.77h5.6v25.25h-5.6v-25.25Z"/><path class="f" d="M92.36,70.69h4.59l.43,3.41h.16c2.14-2.2,4.57-4.03,7.84-4.03,5.11,0,7.35,3.66,7.35,10.04v15.83h-5.6v-15.07c0-4.15-1.13-5.72-3.71-5.72-2.1,0-3.48,1.09-5.44,3.15v17.64h-5.6v-25.25Z"/><path class="f" d="M117.95,100.53c0-2.13,1.24-3.99,3.44-5.39v-.2c-1.23-.84-2.16-2.18-2.16-4.22s1.26-3.68,2.64-4.71v-.2c-1.63-1.28-3.15-3.68-3.15-6.66,0-5.8,4.43-9.07,9.43-9.07,1.32,0,2.57,.25,3.54,.62h8.54v4.4h-4.36c.78,.94,1.36,2.51,1.36,4.23,0,5.61-4.02,8.62-9.08,8.62-1.01,0-2.16-.23-3.23-.67-.72,.65-1.17,1.29-1.17,2.42,0,1.42,.97,2.28,3.87,2.28h4.25c5.71,0,8.74,1.87,8.74,6.23,0,4.98-4.94,8.9-12.74,8.9-5.7,0-9.94-2.16-9.94-6.58Zm17.27-1.36c0-1.95-1.48-2.53-4.21-2.53h-3.28c-1.28,0-2.31-.1-3.23-.35-1.28,1.03-1.85,2.16-1.85,3.33,0,2.31,2.33,3.64,6.09,3.64s6.47-1.91,6.47-4.09Zm-2.92-20.03c0-3.17-1.81-4.97-4.14-4.97s-4.14,1.79-4.14,4.97,1.85,5.08,4.14,5.08,4.14-1.87,4.14-5.08Z"/><path class="f" d="M152.18,70.69h5.62l2.9,13.1c.47,2.45,.82,4.81,1.24,7.28h.2c.47-2.47,.93-4.9,1.52-7.28l3.13-13.1h5.08l3.19,13.1c.58,2.45,1.05,4.81,1.57,7.28h.19c.47-2.47,.82-4.83,1.28-7.28l2.86-13.1h5.23l-6.05,25.25h-6.65l-2.8-11.78c-.51-2.36-.93-4.69-1.44-7.33h-.2c-.47,2.64-.87,5.01-1.42,7.37l-2.7,11.74h-6.46l-6.3-25.25Z"/><path class="f" d="M190.29,62.92c0-1.99,1.48-3.35,3.46-3.35s3.46,1.36,3.46,3.35-1.48,3.35-3.46,3.35-3.46-1.4-3.46-3.35Zm.64,7.77h5.6v25.25h-5.6v-25.25Z"/><path class="f" d="M204.5,87.43v-12.03h-3.4v-4.44l3.69-.27,.66-6.89h4.65v6.89h6.09v4.71h-6.09v12.02c0,2.97,1.09,4.43,3.38,4.43,.82,0,1.79-.29,2.49-.58l.95,4.36c-1.3,.45-2.97,.93-4.88,.93-5.5,0-7.54-3.68-7.54-9.13Z"/><path class="f" d="M221.2,59.63h5.6v9.4l-.23,4.87c2-1.99,4.37-3.83,7.64-3.83,5.11,0,7.35,3.66,7.35,10.04v15.83h-5.6v-15.07c0-4.15-1.13-5.72-3.71-5.72-2.1,0-3.48,1.09-5.44,3.15v17.64h-5.6V59.63Z"/><path class="f" d="M.68,145.05c0-8.41,5.41-13.26,11.36-13.26s11.36,4.85,11.36,13.26-5.41,13.22-11.36,13.22-11.36-4.85-11.36-13.22Zm16.96,0c0-5.06-2.1-8.43-5.6-8.43s-5.6,3.37-5.6,8.43,2.1,8.39,5.6,8.39,5.6-3.33,5.6-8.39Z"/><path class="f" d="M28.67,148.23v-15.84h5.6v15.07c0,4.15,1.13,5.72,3.71,5.72,2.1,0,3.48-1.03,5.29-3.49v-17.3h5.6v25.25h-4.59l-.43-3.72h-.16c-2.1,2.63-4.41,4.34-7.68,4.34-5.11,0-7.35-3.66-7.35-10.03Z"/><path class="f" d="M55.96,132.4h4.59l.43,4.5h.16c1.7-3.29,4.23-5.12,6.79-5.12,1.21,0,1.98,.16,2.7,.51l-.97,5.14c-.84-.25-1.46-.41-2.45-.41-1.91,0-4.2,1.38-5.64,5.22v15.4h-5.6v-25.25Z"/><path class="f" d="M2.25,183.04H7.86v9.4l-.23,4.87c2-2,4.37-3.83,7.64-3.83,5.11,0,7.35,3.66,7.35,10.03v15.84h-5.6v-15.07c0-4.15-1.13-5.72-3.71-5.72-2.1,0-3.48,1.09-5.44,3.15v17.65H2.25v-36.32Z"/><path class="f" d="M27.8,206.75c0-8.21,5.39-13.26,11.01-13.26,6.45,0,9.86,4.93,9.86,11.99,0,1.13-.12,2.26-.24,2.88h-15.16c.47,4.48,3.19,7.03,7.04,7.03,2.04,0,3.79-.68,5.54-1.83l1.91,3.68c-2.28,1.62-5.15,2.74-8.19,2.74-6.59,0-11.76-4.89-11.76-13.22Zm16.02-2.43c0-3.89-1.63-6.25-4.9-6.25-2.78,0-5.23,2.2-5.72,6.25h10.62Z"/><path class="f" d="M52.15,212.57c0-5.41,4.24-8.22,14.04-9.34-.08-2.71-1.11-4.98-4.34-4.98-2.37,0-4.61,1.13-6.71,2.49l-2.06-3.95c2.62-1.75,6.01-3.31,9.8-3.31,5.97,0,8.91,3.89,8.91,10.92v14.95h-4.59l-.43-2.8h-.16c-2.14,1.93-4.59,3.41-7.41,3.41-4.18,0-7.06-3-7.06-7.4Zm14.04,.02v-5.68c-6.47,.86-8.63,2.65-8.63,5.2,0,2.23,1.44,3.21,3.44,3.21s3.42-1.01,5.19-2.74Z"/><path class="f" d="M77.05,206.75c0-8.22,4.88-13.26,10.11-13.26,2.7,0,4.41,1.07,6.26,2.78l-.21-4.07v-9.15h5.6v36.32h-4.59l-.43-2.74h-.16c-1.77,1.87-4.22,3.35-6.79,3.35-5.95,0-9.8-4.89-9.8-13.22Zm16.16,5.49v-11.76c-1.63-1.54-3.25-2.1-4.86-2.1-3.03,0-5.54,3.04-5.54,8.31s1.98,8.39,5.42,8.39c1.85,0,3.4-.86,4.98-2.84Z"/><path class="f" d="M105.92,194.11h4.59l.43,2.7h.16c2.01-1.83,4.57-3.31,7.19-3.31,5.97,0,9.39,5.06,9.39,12.85,0,8.64-4.88,13.63-10.19,13.63-2.12,0-4.2-1.01-6.14-2.78l.17,4.19v7.96h-5.6v-35.25Zm16,12.3c0-5.04-1.56-8.02-5.19-8.02-1.73,0-3.36,.93-5.21,2.84v11.76c1.71,1.54,3.4,2.1,4.78,2.1,3.19,0,5.62-2.96,5.62-8.68Z"/><path class="f" d="M133.04,183.04h5.6v9.4l-.23,4.87c2-2,4.37-3.83,7.64-3.83,5.11,0,7.35,3.66,7.35,10.03v15.84h-5.6v-15.07c0-4.15-1.13-5.72-3.71-5.72-2.1,0-3.48,1.09-5.44,3.15v17.65h-5.6v-36.32Z"/><path class="f" d="M158.59,206.75c0-8.41,5.41-13.26,11.36-13.26s11.36,4.85,11.36,13.26-5.41,13.22-11.36,13.22-11.36-4.85-11.36-13.22Zm16.96,0c0-5.06-2.1-8.43-5.6-8.43s-5.6,3.37-5.6,8.43,2.1,8.39,5.6,8.39,5.6-3.33,5.6-8.39Z"/><path class="f" d="M186.85,194.11h4.59l.43,3.41h.16c2.14-2.2,4.57-4.03,7.84-4.03,5.11,0,7.35,3.66,7.35,10.03v15.84h-5.6v-15.07c0-4.15-1.13-5.72-3.71-5.72-2.1,0-3.48,1.09-5.44,3.15v17.65h-5.6v-25.25Z"/><path class="f" d="M212.49,206.75c0-8.21,5.39-13.26,11.01-13.26,6.45,0,9.86,4.93,9.86,11.99,0,1.13-.12,2.26-.24,2.88h-15.16c.47,4.48,3.19,7.03,7.04,7.03,2.04,0,3.79-.68,5.54-1.83l1.91,3.68c-2.28,1.62-5.15,2.74-8.19,2.74-6.59,0-11.76-4.89-11.76-13.22Zm16.02-2.43c0-3.89-1.63-6.25-4.9-6.25-2.78,0-5.23,2.2-5.72,6.25h10.62Z"/><path class="f" d="M236.33,216.46l2.61-3.76c2.12,1.75,4.17,2.82,6.59,2.82,2.61,0,3.83-1.29,3.83-3.02,0-2.12-2.59-3.06-5.13-4.09-3.13-1.25-6.71-3.15-6.71-7.36s3.34-7.55,8.69-7.55c3.33,0,5.99,1.43,7.93,3.02l-2.57,3.64c-1.67-1.3-3.35-2.2-5.23-2.2-2.4,0-3.54,1.21-3.54,2.8,0,2,2.41,2.76,5,3.76,3.23,1.28,6.84,2.92,6.84,7.63,0,4.34-3.25,7.83-9.27,7.83-3.27,0-6.71-1.48-9.04-3.52Z"/><path class="f" d="M269.86,215.99c0-2.32,1.58-4.03,3.62-4.03s3.62,1.71,3.62,4.03-1.57,3.99-3.62,3.99-3.62-1.71-3.62-3.99Zm.97-25.23l-.17-5.84h5.64l-.17,5.84-.78,17.54h-3.73l-.78-17.54Z"/></g><g><g><path class="e" d="M93.17,122.99s1.08-3.74-.24-6.42c-1.32-2.68-3.64-2.21-3.64-2.21,0,0-3.39,.84-2.6,4.77,.79,3.92,1.99,6.27,1.99,6.27l1.99,9.05s.34,1.66,1.02,1.94c.68,.28,1.57-1.28,1.57-1.28,0,0,1.14-2.22,.61-4.09-.52-1.86-.7-8.02-.7-8.02Z"/><path class="e" d="M98.01,127.61s.85-4.61,2.92-4.89c2.07-.28,1.76-3.13,1.76-3.13,0,0-1.72-4.14-1.25-5.98,.48-1.84-1.04-6.77-1.04-6.77,0,0-2.73-.79-4.43,2.67l.06,11.51s-.04,4.76,.27,5.03,.22,1.33,1.72,1.56Z"/></g><g><path class="d" d="M107.36,141.54s-6.88-.87-8.8-1.5c0,0-2.09-.17-1.44,2.71,.65,2.88,1.31,3.3,1.31,3.3,0,0,1.42,.91,2.15,2.86,.73,1.94,14.14-.59,14.14-.59,0,0,7.14-.88,10.25-6.76,0,0,.41-.98-1.97-.92,0,0-11.32,2.99-15.64,.9Z"/><path class="d" d="M98.7,168.82s6.8-16.38,7.49-21.86c.69-5.48,2.77-14.48,2.77-14.48,0,0,1.02-8.33,1.31-8.38,0,0,.2-1.92,1.14-1.63s3.48-1.16,3.48-1.16l1.35-1.16s1.1-.86,1.4,.92c.3,1.77,3.62,14.15,3.62,14.15,0,0,6.11,21.12,6.84,21.6,0,0,.88,2.51,1.32,2.52,0,0,.6,1.62-1.81,1.93,0,0-3.09-.23-4.25-.83,0,0-2.9,.24-3.42-.81,0,0-3.32-10.12-5.12-28.82,0,0-1.95,12.97-2.56,21.13,0,0-.45,5.86-.9,6.43s-.08,3.68-.08,3.68c0,0,.62,1.63-2.37,3.63-2.98,2-3.52,1.64-4.19,2.43s-2.88,2.46-3.98,2.67-3,.38-2.05-1.96Z"/></g><path class="e" d="M136.39,120.42s1.26,1.53,1.69,1.67,1.04,.22,1.34,.69,1.29,.03,1.29,.03c0,0,1.73-.35,2.15,3.18,0,0,1.86,11.01-.02,17.94,0,0-3.11,15.32-4.26,17.05,0,0,7.15-2.76,11.01-1.62,3.86,1.14,6.86,1.93,8.43,3.66,1.57,1.73-1.56,3.68-1.56,3.68,0,0-8.45-3.99-9.51-2.71,0,0-5.78-.01-12.97,1.84-7.19,1.85,.06-2.54,.06-2.54,0,0,4.92-22.13,1.37-31.8-3.55-9.68,.98-11.07,.98-11.07Z"/><g><path class="e" d="M161.58,135.59s2-3.29,6.22-3.13c0,0,1.45-.08,.85,2.68,0,0-.06,27.45-2,30.29,0,0-.15,2.6-2.2,3.17,0,0-1.58,.92-1.72-2.48-.14-3.4,.7-17.42-.11-19.59l-.25-5.84s-1.47-1.28-.8-5.11Z"/><path class="e" d="M167.94,127.14s-2.67,2.95-5.83,4.16c0,0-1.18,.1-1.48-.98-.3-1.08,.5-9.97,.5-9.97,0,0,1.3,.07,1.6-.78,0,0,.52,.23,.68,.62s.63-.85,.63-.85c0,0,2.25-2.23,3.28,2.45,1.04,4.67,.62,5.35,.62,5.35Z"/></g><path class="e" d="M204.06,124.5s-10.65,3.28-21.66-.78c0,0-1.7-.35-1.85,1.14,0,0-1.37,.74-1.89,.52-.52-.21-.54,.6-.54,.6,0,0,1.4,3.02,4.62,3.59,0,0,1.49,9.92,1.16,11.46,0,0-.43,.86-2.48,.37,0,0-.58,2.41,2.29,2.91,0,0-.42,14.04-1.77,16.36-1.34,2.33,2.04,3.28,2.04,3.28,0,0,.76-.04,1.22,.78,.45,.82,1.92,.73,1.92,.73,0,0,.64,.08,1.63-1.82,0,0,8.75-8.05,16.54-9.66,0,0,1.04-1.96,.89-2.9-.16-.94-.95-2.07-2.6-1.87,0,0-1.65,.15-2.2-1.48,0,0-.1-.81-.92-1.02,0,0-.63-.76-2.32,1.31l-8.8,7.62,.36-10.94s9.14,.98,11.48-3.69c0,0,.15-1.49,.39-1.92s.2-.93-.61-1.51c-.81-.58-.97-1.14-.97-1.14,0,0-8.8,4.94-10.55,4.28,0,0,.17-7.95-.33-9.08,0,0,9.66,1.54,10.97,.83,0,0,2-.14,2.54-3.42,0,0,1.97-1.38,2.28-2.31,0,0,.65-2.63-.83-2.26Z"/><path class="e" d="M210.16,124.24s3.7,25.71-2.61,39.24c0,0-1.8,4.32,3.36,2.59,0,0,2.29-.7,3.07-1.53,0,0,3.29-.72,3.77-3.32,.48-2.6-.74-18.42-.74-18.42,0,0,6.16,21.66,10.12,22.66,3.96,1,6.77-3.9,6.77-3.9,0,0-3.4-26.45,.25-37.39,0,0,.29-1.54-1.65-1.58,0,0-2.63,1.7-3.2,2.56,0,0-3.89,.1-3.66,2.26,0,0-.37,21.23,1.63,26.85,0,0-2.2-.74-7.16-19.45,0,0-1.9-6.21-2.71-11.52,0,0-.97-2.37-3.21-1.15,0,0-5.2,1.13-4.02,2.1Z"/><g><path class="e" d="M247.94,122.3s-.92-3.79,.51-6.4c1.43-2.61,3.73-2.03,3.73-2.03,0,0,3.35,1.01,2.39,4.89-.96,3.88-2.26,6.16-2.26,6.16l-2.38,8.94s-.41,1.64-1.1,1.89-1.51-1.36-1.51-1.36c0,0-1.04-2.27-.43-4.11,.6-1.84,1.05-7.98,1.05-7.98Z"/><path class="e" d="M242.9,126.68s-.65-4.65-2.7-5.03c-2.05-.38-1.62-3.21-1.62-3.21,0,0,1.9-4.05,1.5-5.92-.4-1.86,1.33-6.71,1.33-6.71,0,0,2.77-.66,4.31,2.88l-.56,11.5s-.17,4.76-.48,5.02c-.32,.26-.28,1.32-1.78,1.48Z"/></g></g></g></g></g></svg>